<svg width="1920" height="1080" viewBox="0 0 1920 1080" fill="none" xmlns="http://www.w3.org/2000/svg">
<g clip-path="url(#clip0_537_10324)">
<rect width="1919.78" height="1080" fill="#FFFFE2"/>
<ellipse cx="201.919" cy="162.291" rx="201.919" ry="162.291" transform="matrix(0.954526 -0.298129 0.449269 0.893397 350 898.396)" fill="#FDFBB7" fill-opacity="0.98"/>
<ellipse cx="229.121" cy="166.919" rx="229.121" ry="166.919" transform="matrix(0.980258 -0.197721 0.354376 0.935103 1242 879.604)" fill="#FDFBB7" fill-opacity="0.98"/>
<ellipse cx="239.597" cy="201.745" rx="239.597" ry="201.745" transform="matrix(0.954526 -0.298129 0.449269 0.893397 -281 643.862)" fill="#FDFBB7" fill-opacity="0.98"/>
<ellipse cx="239.597" cy="201.745" rx="239.597" ry="201.745" transform="matrix(0.954526 -0.298129 0.449269 0.893397 -299 442.862)" fill="#FDFBB7" fill-opacity="0.98"/>
<ellipse cx="263.75" cy="222.082" rx="263.75" ry="222.082" transform="matrix(0.954526 -0.298129 0.449269 0.893397 20 607.264)" fill="#FDFBB7" fill-opacity="0.98"/>
<ellipse cx="263.75" cy="222.082" rx="263.75" ry="222.082" transform="matrix(0.954526 -0.298129 0.449269 0.893397 584 869.264)" fill="#FDFBB7" fill-opacity="0.98"/>
<ellipse cx="143.469" cy="120.803" rx="143.469" ry="120.803" transform="matrix(0.954526 -0.298129 0.449269 0.893397 64.5605 767.812)" fill="#FDFBB7" fill-opacity="0.98"/>
<ellipse cx="201.919" cy="162.291" rx="201.919" ry="162.291" transform="matrix(0.954526 -0.298129 0.449269 0.893397 458 700.396)" fill="#FDFBB7" fill-opacity="0.98"/>
<ellipse cx="150.714" cy="126.904" rx="150.714" ry="126.904" transform="matrix(0.954526 -0.298129 0.449269 0.893397 1016 892.865)" fill="#FDFBB7" fill-opacity="0.98"/>
<ellipse cx="150.714" cy="126.904" rx="150.714" ry="126.904" transform="matrix(0.954526 -0.298129 0.449269 0.893397 1609 982.865)" fill="#FDFBB7" fill-opacity="0.98"/>
<ellipse cx="247.63" cy="205.045" rx="247.63" ry="205.045" transform="matrix(0.905933 -0.42342 0.583031 0.81245 -25 983.703)" fill="#FDFBB7" fill-opacity="0.98"/>
<ellipse cx="159.409" cy="134.225" rx="159.409" ry="134.225" transform="matrix(0.954526 -0.298129 0.449269 0.893397 1064 932.049)" fill="#FDFBB7" fill-opacity="0.98"/>
<ellipse cx="157.836" cy="145.355" rx="157.836" ry="145.355" transform="matrix(0.942718 -0.333591 0.405693 0.91401 -118 908.306)" fill="#FDFBB7" fill-opacity="0.98"/>
</g>
<defs>
<clipPath id="clip0_537_10324">
<rect width="1919.78" height="1080" fill="white"/>
</clipPath>
</defs>
</svg>
